<svg 
 xmlns="http://www.w3.org/2000/svg"
 xmlns:xlink="http://www.w3.org/1999/xlink"
 width="443px" height="90px">
<path fill-rule="evenodd"  fill="rgb(2, 69, 245)"
 d="M40.000,-0.000 C62.091,-0.000 80.000,17.909 80.000,40.000 C80.000,62.091 61.591,74.500 40.000,90.000 C21.409,76.000 -0.000,62.091 -0.000,40.000 C-0.000,17.909 17.909,-0.000 40.000,-0.000 Z"/>
<path fill-rule="evenodd"  fill="rgb(25, 15, 1)"
 d="M442.468,61.406 L442.468,68.750 C431.884,69.830 428.806,66.644 428.806,59.084 L428.806,49.526 L424.486,49.526 L424.486,41.750 L428.806,41.750 L428.806,36.619 L436.906,34.189 L436.906,41.750 L442.468,41.750 L442.468,49.526 L436.906,49.526 L436.906,59.084 C436.906,61.406 438.904,61.622 442.468,61.406 ZM411.094,61.514 C413.470,61.514 415.468,60.380 416.332,58.490 L423.406,62.540 C421.084,66.752 416.494,69.506 411.202,69.506 C402.994,69.506 396.892,63.296 396.892,55.250 C396.892,47.204 402.994,40.994 411.202,40.994 C416.440,40.994 421.084,43.748 423.406,47.906 L416.332,52.010 C415.414,50.120 413.470,48.986 411.094,48.986 C407.584,48.986 404.992,51.524 404.992,55.250 C404.992,58.976 407.584,61.514 411.094,61.514 ZM384.203,66.212 C382.421,68.264 379.775,69.506 376.157,69.506 C369.083,69.506 363.251,63.296 363.251,55.250 C363.251,47.204 369.083,40.994 376.157,40.994 C379.775,40.994 382.421,42.236 384.203,44.288 L384.203,41.750 L392.303,41.750 L392.303,68.750 L384.203,68.750 L384.203,66.212 ZM377.777,48.662 C374.051,48.662 371.351,51.200 371.351,55.250 C371.351,59.300 374.051,61.838 377.777,61.838 C381.503,61.838 384.203,59.300 384.203,55.250 C384.203,51.200 381.503,48.662 377.777,48.662 ZM346.889,59.084 L346.889,49.526 L342.569,49.526 L342.569,41.750 L346.889,41.750 L346.889,36.619 L354.989,34.189 L354.989,41.750 L360.551,41.750 L360.551,49.526 L354.989,49.526 L354.989,59.084 C354.989,61.406 356.987,61.622 360.551,61.406 L360.551,68.750 C349.967,69.830 346.889,66.644 346.889,59.084 ZM331.067,53.360 C331.067,50.012 328.961,48.446 326.369,48.446 C323.399,48.446 321.347,50.174 321.347,54.008 L321.347,68.750 L313.247,68.750 L313.247,41.750 L321.347,41.750 L321.347,44.288 C322.805,42.290 325.505,40.994 329.069,40.994 C334.523,40.994 339.168,44.882 339.168,52.172 L339.168,68.750 L331.067,68.750 L331.067,53.360 ZM294.348,69.506 C286.409,69.506 280.037,63.296 280.037,55.250 C280.037,47.204 286.409,40.994 294.348,40.994 C302.286,40.994 308.658,47.204 308.658,55.250 C308.658,63.296 302.286,69.506 294.348,69.506 ZM294.348,48.878 C290.837,48.878 288.137,51.416 288.137,55.250 C288.137,59.084 290.837,61.622 294.348,61.622 C297.858,61.622 300.558,59.084 300.558,55.250 C300.558,51.416 297.858,48.878 294.348,48.878 ZM266.376,61.514 C268.752,61.514 270.750,60.380 271.614,58.490 L278.688,62.540 C276.366,66.752 271.776,69.506 266.484,69.506 C258.276,69.506 252.174,63.296 252.174,55.250 C252.174,47.204 258.276,40.994 266.484,40.994 C271.722,40.994 276.366,43.748 278.688,47.906 L271.614,52.010 C270.696,50.120 268.752,48.986 266.376,48.986 C262.866,48.986 260.274,51.524 260.274,55.250 C260.274,58.976 262.866,61.514 266.376,61.514 ZM245.154,69.506 C242.346,69.506 240.024,67.184 240.024,64.376 C240.024,61.568 242.346,59.246 245.154,59.246 C247.962,59.246 250.284,61.568 250.284,64.376 C250.284,67.184 247.962,69.506 245.154,69.506 ZM225.552,69.506 C220.152,69.506 216.048,67.454 213.942,63.080 L220.962,59.084 C221.664,61.136 223.176,62.270 225.552,62.270 C227.496,62.270 228.468,61.676 228.468,60.596 C228.468,57.626 215.184,59.192 215.184,49.850 C215.184,43.964 220.152,40.994 225.768,40.994 C230.142,40.994 234.030,42.938 236.298,46.772 L229.386,50.498 C228.630,49.094 227.550,48.122 225.768,48.122 C224.364,48.122 223.500,48.662 223.500,49.634 C223.500,52.712 236.784,50.660 236.784,60.650 C236.784,66.860 231.384,69.506 225.552,69.506 ZM197.851,59.084 L197.851,49.526 L193.531,49.526 L193.531,41.750 L197.851,41.750 L197.851,36.619 L205.951,34.189 L205.951,41.750 L211.513,41.750 L211.513,49.526 L205.951,49.526 L205.951,59.084 C205.951,61.406 207.949,61.622 211.513,61.406 L211.513,68.750 C200.929,69.830 197.851,66.644 197.851,59.084 ZM182.029,53.360 C182.029,50.012 179.923,48.446 177.331,48.446 C174.361,48.446 172.309,50.174 172.309,54.008 L172.309,68.750 L164.209,68.750 L164.209,41.750 L172.309,41.750 L172.309,44.288 C173.767,42.290 176.467,40.994 180.031,40.994 C185.485,40.994 190.130,44.882 190.130,52.172 L190.130,68.750 L182.029,68.750 L182.029,53.360 ZM140.126,58.490 C141.152,61.298 143.636,62.270 146.606,62.270 C148.820,62.270 150.710,61.406 151.790,60.218 L158.270,63.944 C155.624,67.616 151.628,69.506 146.498,69.506 C137.264,69.506 131.540,63.296 131.540,55.250 C131.540,47.204 137.372,40.994 145.904,40.994 C153.788,40.994 159.620,47.096 159.620,55.250 C159.620,56.384 159.512,57.464 159.296,58.490 L140.126,58.490 ZM145.850,48.176 C142.772,48.176 140.720,49.688 139.964,52.442 L151.574,52.442 C150.710,49.310 148.280,48.176 145.850,48.176 ZM121.820,56.546 L121.820,68.750 L113.720,68.750 L113.720,41.750 L121.820,41.750 L121.820,46.556 C122.900,42.938 126.518,41.210 129.920,41.210 L129.920,50.390 C126.572,49.850 121.820,51.200 121.820,56.546 Z"/>
<path fill-rule="evenodd"  fill="rgb(243, 243, 243)"
 d="M51.000,54.000 L45.000,54.000 C43.343,54.000 42.000,52.657 42.000,51.000 L42.000,45.000 C42.000,43.343 43.343,42.000 45.000,42.000 L51.000,42.000 C52.657,42.000 54.000,43.343 54.000,45.000 L54.000,51.000 C54.000,52.657 52.657,54.000 51.000,54.000 ZM51.000,37.000 L45.000,37.000 C43.343,37.000 42.000,35.657 42.000,34.000 L42.000,28.000 C42.000,26.343 43.343,25.000 45.000,25.000 L51.000,25.000 C52.657,25.000 54.000,26.343 54.000,28.000 L54.000,34.000 C54.000,35.657 52.657,37.000 51.000,37.000 ZM34.000,54.000 L28.000,54.000 C26.343,54.000 25.000,52.657 25.000,51.000 L25.000,45.000 C25.000,43.343 26.343,42.000 28.000,42.000 L34.000,42.000 C35.657,42.000 37.000,43.343 37.000,45.000 L37.000,51.000 C37.000,52.657 35.657,54.000 34.000,54.000 ZM34.000,37.000 L28.000,37.000 C26.343,37.000 25.000,35.657 25.000,34.000 L25.000,28.000 C25.000,26.343 26.343,25.000 28.000,25.000 L34.000,25.000 C35.657,25.000 37.000,26.343 37.000,28.000 L37.000,34.000 C37.000,35.657 35.657,37.000 34.000,37.000 Z"/>
</svg>