<svg width="235" height="143" viewBox="0 0 235 143" fill="none" xmlns="http://www.w3.org/2000/svg">
<path fill-rule="evenodd" clip-rule="evenodd" d="M207.688 131.26C208.607 131.6 210.208 131.71 212.488 131.59V139.75C206.807 140.35 202.847 139.81 200.608 138.13C198.407 136.411 197.308 133.37 197.308 129.01V118.39H192.508V109.75H197.308V104.05L206.308 101.35V109.75H212.488V118.39H206.308V129.01C206.308 130.171 206.767 130.921 207.688 131.26ZM177.628 131.71C180.467 131.71 182.407 130.591 183.448 128.35L191.308 132.85C189.988 135.25 188.117 137.14 185.698 138.52C183.277 139.9 180.628 140.59 177.748 140.59C173.188 140.59 169.387 139.07 166.348 136.03C163.348 132.991 161.848 129.23 161.848 124.75C161.848 120.271 163.348 116.51 166.348 113.47C169.387 110.431 173.188 108.91 177.748 108.91C180.587 108.91 183.227 109.61 185.668 111.01C188.107 112.411 189.988 114.271 191.308 116.59L183.448 121.15C182.368 118.91 180.427 117.79 177.628 117.79C175.667 117.79 174.047 118.441 172.768 119.74C171.487 121.04 170.848 122.71 170.848 124.75C170.848 126.79 171.487 128.461 172.768 129.76C174.047 131.06 175.667 131.71 177.628 131.71ZM147.749 136.93C145.668 139.37 142.688 140.59 138.809 140.59C134.849 140.59 131.468 139.07 128.669 136.03C125.868 132.991 124.469 129.23 124.469 124.75C124.469 120.31 125.868 116.57 128.669 113.53C131.508 110.45 134.888 108.91 138.809 108.91C142.688 108.91 145.668 110.131 147.749 112.57V109.75H156.749V139.75H147.749V136.93ZM145.769 119.41C144.449 118.09 142.728 117.43 140.609 117.43C138.488 117.43 136.769 118.09 135.449 119.41C134.129 120.73 133.469 122.51 133.469 124.75C133.469 126.991 134.129 128.77 135.449 130.09C136.769 131.41 138.488 132.07 140.609 132.07C142.728 132.07 144.449 131.41 145.769 130.09C147.089 128.77 147.749 126.991 147.749 124.75C147.749 122.51 147.089 120.73 145.769 119.41ZM148.587 96.59C147.027 96.59 145.687 96.029 144.567 94.91C143.447 93.791 142.887 92.45 142.887 90.89C142.887 89.33 143.447 87.99 144.567 86.87C145.687 85.751 147.027 85.19 148.587 85.19C150.147 85.19 151.487 85.751 152.607 86.87C153.727 87.99 154.287 89.33 154.287 90.89C154.287 92.45 153.727 93.791 152.607 94.91C151.487 96.029 150.147 96.59 148.587 96.59ZM129.748 77.15C136.147 78.551 139.327 81.75 139.288 86.75C139.288 89.99 138.088 92.45 135.688 94.13C133.247 95.77 130.288 96.59 126.808 96.59C120.487 96.59 116.188 94.211 113.908 89.45L121.708 85.01C122.507 87.371 124.207 88.55 126.808 88.55C128.968 88.55 130.048 87.93 130.048 86.69C130.048 85.811 128.308 84.93 124.828 84.05C123.547 83.69 122.447 83.321 121.528 82.94C120.607 82.56 119.617 82.02 118.558 81.32C117.497 80.621 116.687 79.71 116.128 78.59C115.567 77.471 115.288 76.19 115.288 74.75C115.288 71.67 116.407 69.251 118.648 67.49C120.887 65.771 123.688 64.91 127.048 64.91C132.287 64.91 136.187 67.05 138.748 71.33L131.068 75.47C130.108 73.71 128.767 72.83 127.048 72.83C125.368 72.83 124.528 73.391 124.528 74.51C124.528 75.03 124.948 75.48 125.788 75.86C126.628 76.241 127.948 76.67 129.748 77.15ZM99.328 94.13C97.128 92.411 96.028 89.37 96.028 85.01V74.39H91.228V65.75H96.028V60.05L105.028 57.35V65.75H111.208V74.39H105.028V85.01C105.028 86.171 105.488 86.921 106.408 87.26C107.328 87.6 108.928 87.71 111.208 87.59V95.75C105.528 96.35 101.568 95.81 99.328 94.13ZM97.709 121.33V139.75H88.709V122.65C88.709 120.931 88.229 119.59 87.269 118.63C86.309 117.67 85.049 117.19 83.489 117.19C81.729 117.19 80.359 117.721 79.379 118.78C78.399 119.84 77.909 121.37 77.909 123.37V139.75H68.909V109.75H77.909V112.57C79.709 110.131 82.569 108.91 86.489 108.91C89.729 108.91 92.389 110.011 94.469 112.21C96.629 114.451 97.709 117.49 97.709 121.33ZM78.449 78.65C78.449 76.931 77.969 75.59 77.009 74.63C76.049 73.67 74.789 73.19 73.229 73.19C71.468 73.19 70.099 73.721 69.119 74.78C68.138 75.84 67.649 77.37 67.649 79.37V95.75H58.649V65.75H67.649V68.57C69.449 66.131 72.308 64.91 76.229 64.91C79.469 64.91 82.129 66.011 84.209 68.21C86.369 70.451 87.449 73.49 87.449 77.33V95.75H78.449V78.65ZM63.809 124.75C63.809 129.19 62.269 132.95 59.189 136.03C56.149 139.07 52.3891 140.59 47.909 140.59C43.429 140.59 39.6691 139.07 36.6291 136.03C33.5491 132.95 32.009 129.19 32.009 124.75C32.009 120.35 33.5491 116.611 36.6291 113.53C39.7091 110.45 43.469 108.91 47.909 108.91C52.3491 108.91 56.109 110.45 59.189 113.53C62.269 116.611 63.809 120.35 63.809 124.75ZM52.829 119.65C51.509 118.33 49.8691 117.67 47.909 117.67C45.949 117.67 44.309 118.33 42.989 119.65C41.669 120.97 41.009 122.671 41.009 124.75C41.009 126.83 41.669 128.53 42.989 129.85C44.309 131.17 45.949 131.83 47.909 131.83C49.8691 131.83 51.509 131.17 52.829 129.85C54.149 128.53 54.809 126.83 54.809 124.75C54.809 122.671 54.149 120.97 52.829 119.65ZM31.89 84.35C32.889 87.15 35.289 88.55 39.09 88.55C41.529 88.55 43.449 87.791 44.85 86.27L52.05 90.41C49.129 94.53 44.7691 96.59 38.9701 96.59C33.9691 96.59 29.929 95.09 26.85 92.09C23.85 89.09 22.35 85.31 22.35 80.75C22.35 76.271 23.8291 72.51 26.7901 69.47C29.7901 66.431 33.6301 64.91 38.3101 64.91C42.6691 64.91 46.29 66.431 49.17 69.47C52.089 72.431 53.55 76.19 53.55 80.75C53.55 82.031 53.43 83.231 53.19 84.35H31.89ZM38.25 72.89C34.77 72.89 32.589 74.471 31.71 77.63H44.6101C43.7291 74.471 41.61 72.89 38.25 72.89ZM14.37 76.49C12.489 77.57 11.55 79.47 11.55 82.19V95.75H2.55005V65.75H11.55V71.09C12.11 69.21 13.22 67.751 14.88 66.71C16.539 65.67 18.429 65.15 20.55 65.15V75.35C18.309 74.99 16.25 75.371 14.37 76.49ZM16.95 108.91C19.79 108.91 22.4301 109.61 24.8701 111.01C27.3091 112.411 29.19 114.271 30.51 116.59L22.65 121.15C21.57 118.91 19.629 117.79 16.83 117.79C14.87 117.79 13.25 118.441 11.97 119.74C10.689 121.04 10.05 122.71 10.05 124.75C10.05 126.79 10.689 128.461 11.97 129.76C13.25 131.06 14.87 131.71 16.83 131.71C19.67 131.71 21.609 130.591 22.65 128.35L30.51 132.85C29.19 135.25 27.32 137.14 24.9 138.52C22.479 139.9 19.83 140.59 16.95 140.59C12.39 140.59 8.58905 139.07 5.55005 136.03C2.55005 132.991 1.05005 129.23 1.05005 124.75C1.05005 120.271 2.55005 116.51 5.55005 113.47C8.58905 110.431 12.39 108.91 16.95 108.91ZM106.289 104.05L115.289 101.35V109.75H121.469V118.39H115.289V129.01C115.289 130.171 115.748 130.921 116.669 131.26C117.588 131.6 119.189 131.71 121.469 131.59V139.75C115.788 140.35 111.828 139.81 109.589 138.13C107.388 136.411 106.289 133.37 106.289 129.01V118.39H101.489V109.75H106.289V104.05Z" fill="#190F01" stroke="black"/>
<path fill-rule="evenodd" clip-rule="evenodd" d="M177.074 76.441C185.307 80.292 194.887 81.379 204.353 78.843C225.691 73.125 238.355 51.192 232.637 29.853C226.919 8.514 204.986 -4.149 183.647 1.569C162.309 7.286 149.645 29.22 155.363 50.559C156.281 53.985 157.622 57.184 159.307 60.123L157.5 80L177.074 76.441ZM200.5 55H206.5C208.157 55 209.5 53.657 209.5 52V46C209.5 44.343 208.157 43 206.5 43H200.5C198.843 43 197.5 44.343 197.5 46V52C197.5 53.657 198.843 55 200.5 55ZM200.5 38H206.5C208.157 38 209.5 36.657 209.5 35V29C209.5 27.343 208.157 26 206.5 26H200.5C198.843 26 197.5 27.343 197.5 29V35C197.5 36.657 198.843 38 200.5 38ZM182.5 55H188.5C190.157 55 191.5 53.657 191.5 52V46C191.5 44.343 190.157 43 188.5 43H182.5C180.843 43 179.5 44.343 179.5 46V52C179.5 53.657 180.843 55 182.5 55ZM182.5 38H188.5C190.157 38 191.5 36.657 191.5 35V29C191.5 27.343 190.157 26 188.5 26H182.5C180.843 26 179.5 27.343 179.5 29V35C179.5 36.657 180.843 38 182.5 38Z" fill="#003DDD"/>
<path d="M200.5 55H206.5C208.157 55 209.5 53.657 209.5 52V46C209.5 44.343 208.157 43 206.5 43H200.5C198.843 43 197.5 44.343 197.5 46V52C197.5 53.657 198.843 55 200.5 55Z" fill="white"/>
<path d="M182.5 55H188.5C190.157 55 191.5 53.657 191.5 52V46C191.5 44.343 190.157 43 188.5 43H182.5C180.843 43 179.5 44.343 179.5 46V52C179.5 53.657 180.843 55 182.5 55Z" fill="white"/>
<path d="M200.5 38H206.5C208.157 38 209.5 36.657 209.5 35V29C209.5 27.343 208.157 26 206.5 26H200.5C198.843 26 197.5 27.343 197.5 29V35C197.5 36.657 198.843 38 200.5 38Z" fill="white"/>
<path d="M182.5 38H188.5C190.157 38 191.5 36.657 191.5 35V29C191.5 27.343 190.157 26 188.5 26H182.5C180.843 26 179.5 27.343 179.5 29V35C179.5 36.657 180.843 38 182.5 38Z" fill="white"/>
</svg>
